<svg width="118" height="73" viewBox="0 0 118 73" fill="none" xmlns="http://www.w3.org/2000/svg">
<path d="M100.33 18.3835L100.094 18.3478L99.5134 18.2653C99.6364 17.4046 99.5934 16.5059 99.3598 15.6117L100.163 15.4021C100.093 15.1355 100.011 14.8758 99.915 14.6237C99.6573 13.9432 99.308 13.3172 98.8851 12.7591L98.5195 13.0336L98.2223 13.2571C97.6825 12.5338 97.0038 11.9377 96.2392 11.4872L96.6576 10.7736C95.8134 10.2792 94.872 9.94662 93.887 9.80711L93.7696 10.6274C92.909 10.5044 92.0103 10.5475 91.1157 10.781L90.9061 9.97782C89.9204 10.2352 89.0282 10.676 88.2634 11.256L88.7614 11.9188C88.0378 12.4583 87.4416 13.1374 86.9914 13.9016L86.2779 13.4832C85.7802 14.3282 85.4505 15.2688 85.3114 16.2539L85.3181 16.2553L85.8583 16.3323L86.1316 16.3712C86.0087 17.2318 86.0523 18.1338 86.285 19.0251L85.4818 19.2347C85.7392 20.2204 86.1794 21.1096 86.7561 21.8754L87.4189 21.3774C87.9617 22.1 88.6413 22.6991 89.4056 23.1494L88.9875 23.8629C89.8316 24.3576 90.7698 24.6911 91.7552 24.8303L91.7823 24.6478L91.8722 24.01C92.7332 24.1329 93.6348 24.0893 94.5291 23.8558L94.7387 24.6589C95.7244 24.4015 96.6136 23.9613 97.3787 23.3817L96.8807 22.7186C97.604 22.179 98.2031 21.4994 98.6536 20.7352L99.3671 21.1533C99.8616 20.3094 100.194 19.368 100.334 18.3826L100.33 18.3835ZM92.8225 23.7113C89.2921 23.7113 86.4303 20.8492 86.4303 17.3188C86.4303 13.7883 89.2921 10.9263 92.8225 10.9263C96.353 10.9263 99.215 13.7883 99.215 17.3188C99.215 20.8492 96.353 23.7113 92.8225 23.7113Z" fill="black"/>
<path d="M100.121 19.3775L99.8908 19.3105L99.3268 19.1511C99.5637 18.3146 99.6412 17.4183 99.5293 16.5008L100.353 16.4004C100.32 16.1269 100.273 15.8585 100.212 15.5959C100.047 14.8871 99.7846 14.22 99.4402 13.6104L99.0412 13.8335L98.7167 14.0153C98.2784 13.2264 97.6854 12.5449 96.988 11.9962L97.498 11.345C96.7275 10.7421 95.839 10.2867 94.8814 10.0168L94.6555 10.814C93.819 10.5771 92.9226 10.4996 92.0049 10.6115L91.9045 9.78755C90.8932 9.91091 89.9502 10.2285 89.1147 10.701L89.5196 11.4244C88.7304 11.8624 88.0488 12.4557 87.5005 13.1528L86.8493 12.6428C86.2431 13.4138 85.7907 14.3018 85.5211 15.2594L85.5277 15.2618L86.0527 15.4103L86.3183 15.4854C86.0814 16.3219 86.0041 17.2215 86.1155 18.136L85.2915 18.2363C85.4149 19.2476 85.7322 20.1877 86.2014 21.0236L86.9248 20.6187C87.3662 21.4074 87.9596 22.092 88.6568 22.6403L88.1471 23.2916C88.9175 23.8947 89.8027 24.3506 90.7607 24.6202L90.8119 24.443L90.9863 23.823C91.8231 24.0599 92.7225 24.1372 93.6399 24.0254L93.7403 24.8493C94.7515 24.726 95.6916 24.4086 96.5274 23.9364L96.1225 23.2127C96.9114 22.7747 97.596 22.1812 98.1446 21.4841L98.7959 21.9938C99.3987 21.2236 99.8541 20.3351 100.124 19.3772L100.121 19.3775ZM91.968 23.654C88.4692 23.182 86.0157 19.9632 86.4876 16.4644C86.9595 12.9656 90.1782 10.5118 93.6769 10.9837C97.1757 11.4556 99.6295 14.6745 99.1576 18.1733C98.6857 21.672 95.4668 24.1258 91.968 23.654Z" fill="#C0C0C0"/>
<path d="M56.829 60.9731C53.5733 60.9731 51.0882 60.1447 49.3737 58.488C47.6784 56.812 46.8308 54.4906 46.8308 51.5239C46.8308 48.4223 47.6592 46.0239 49.3159 44.3287C50.9919 42.6334 53.4867 41.7858 56.8001 41.7858C57.9367 41.7858 58.9481 41.8725 59.8343 42.0458C60.7397 42.2192 61.6066 42.4504 62.435 42.7394V46.8138C60.759 46.1203 58.9963 45.7735 57.1469 45.7735C55.2205 45.7735 53.8045 46.2358 52.8991 47.1605C52.0129 48.0852 51.5699 49.5397 51.5699 51.5239C51.5699 53.4118 52.0418 54.7989 52.9858 55.685C53.9297 56.5712 55.336 57.0143 57.2047 57.0143C58.1101 57.0143 59.0059 56.9372 59.8921 56.7831C60.7782 56.6097 61.6355 56.3496 62.4639 56.0029V60.1062C61.6548 60.3759 60.7975 60.5878 59.8921 60.7419C58.9866 60.896 57.9656 60.9731 56.829 60.9731ZM63.0998 60.6841L70.2084 42.0747H75.2364L82.3449 60.6841H77.4903L75.8143 56.4652H69.6015L67.9544 60.6841H63.0998ZM70.2373 53.0265H75.1786L72.6935 46.5537L70.2373 53.0265ZM84.1232 60.6841V42.0747H92.1854C94.0733 42.0747 95.6626 42.3926 96.9533 43.0283C98.244 43.6448 99.2265 44.6465 99.9007 46.0336C100.575 47.4013 100.912 49.2218 100.912 51.495C100.912 54.6929 100.17 57.0239 98.6871 58.488C97.223 59.9521 95.0557 60.6841 92.1854 60.6841H84.1232ZM88.7756 57.101H91.5496C92.5514 57.101 93.3894 56.9565 94.0636 56.6675C94.7571 56.3593 95.2773 55.8006 95.624 54.9915C95.9901 54.1824 96.1731 53.0169 96.1731 51.495C96.1731 49.9539 96.0093 48.7691 95.6818 47.9407C95.3736 47.0931 94.8727 46.5055 94.1792 46.178C93.505 45.8313 92.6284 45.6579 91.5496 45.6579H88.7756V57.101Z" fill="white"/>
<path d="M43.051 32.8118C38.9401 32.8118 35.0753 31.211 32.1685 28.3042C29.2616 25.3973 27.6608 21.5326 27.6608 17.4217C27.6608 13.3108 29.2617 9.44603 32.1685 6.53921C35.0753 3.63239 38.9401 2.03152 43.051 2.03152C47.1618 2.03152 51.0266 3.63239 53.9335 6.53921C56.8403 9.44603 58.4412 13.3108 58.4412 17.4217C58.4412 21.5326 56.8403 25.3973 53.9335 28.3042C51.0267 31.211 47.1618 32.8118 43.051 32.8118ZM43.051 2.17538C34.6441 2.17538 27.8047 9.01483 27.8047 17.4217C27.8047 25.8285 34.6441 32.6679 43.051 32.6679C51.4578 32.6679 58.2972 25.8285 58.2972 17.4217C58.2973 9.01483 51.4578 2.17538 43.051 2.17538Z" fill="#C0C0C0"/>
<path d="M59.5483 17.3749C59.5478 16.6124 59.4953 15.8623 59.3943 15.1275L60.2844 15.0044C60.1757 14.2207 60.0123 13.4384 59.7986 12.6786L58.9366 12.9213C58.7324 12.1919 58.4789 11.4834 58.1805 10.7989L58.9986 10.4412C58.6826 9.71817 58.3136 9.0101 57.9007 8.33598L57.141 8.80051C56.7489 8.15717 56.3134 7.54282 55.839 6.96194L56.5271 6.39962C56.0277 5.78843 55.4813 5.20528 54.9036 4.66697L54.2992 5.31575C53.7495 4.80325 53.1655 4.32787 52.5498 3.89369L53.0596 3.17023C52.4135 2.71432 51.7299 2.2996 51.0286 1.93697L50.6225 2.72156C49.9579 2.37702 49.2665 2.07642 48.553 1.82422L48.8473 0.992081C48.1016 0.728135 47.3306 0.514006 46.5556 0.355089L46.3786 1.2189C45.6501 1.06903 44.904 0.967647 44.1438 0.917832L44.2018 0.0381545C43.4168 -0.0138865 42.6136 -0.0125599 41.829 0.041328L41.8896 0.921005C41.1299 0.973046 40.3838 1.07675 39.6558 1.22932L39.4761 0.365505C38.7019 0.526695 37.9322 0.743098 37.1884 1.00884L37.4849 1.84008C36.7719 2.09451 36.0819 2.39696 35.4186 2.7433L35.0107 1.95917C34.3112 2.3236 33.6294 2.74017 32.9847 3.19741L33.4963 3.91955C32.8824 4.3551 32.2998 4.8318 31.7519 5.3461L31.1457 4.69869C30.5689 5.23838 30.0243 5.82285 29.5263 6.43584L30.2158 6.99632C29.7427 7.57899 29.3089 8.19473 28.9182 8.83944L28.1572 8.37675C27.7461 9.05267 27.3785 9.76301 27.0643 10.4874L27.8837 10.8428C27.5867 11.5287 27.3355 12.2386 27.1335 12.9693L26.2702 12.7289C26.0587 13.4891 25.8975 14.2723 25.7916 15.056L26.6821 15.1764C26.5848 15.8999 26.535 16.6379 26.535 17.3876C26.535 17.3994 26.535 17.4116 26.5355 17.4234L25.6341 17.4243C25.635 18.2161 25.6893 19.0129 25.7962 19.7925L26.6916 19.6698C26.7953 20.4219 26.9501 21.158 27.1521 21.8742L26.2797 22.1191C26.4929 22.8798 26.7614 23.6326 27.0774 24.3575L27.91 23.9944C28.2124 24.6857 28.5606 25.3517 28.9509 25.9896L28.173 26.4641C28.5841 27.1373 29.0455 27.7892 29.5449 28.4018L30.2529 27.8241C30.7279 28.4059 31.2422 28.9546 31.7909 29.4666L31.167 30.1353C31.7447 30.6745 32.3645 31.1789 33.0092 31.6343L33.538 30.8855C34.1497 31.3174 34.7921 31.7081 35.4613 32.0544L35.0389 32.8698C35.7411 33.2338 36.4749 33.5526 37.2197 33.8169L37.5271 32.9504C38.2293 33.1998 38.9537 33.4022 39.6962 33.5548L39.5106 34.4557C40.2825 34.6151 41.0743 34.7224 41.8639 34.7753L41.925 33.8567C42.294 33.8817 42.6662 33.8943 43.0415 33.8943C43.4223 33.8943 43.7999 33.8817 44.1742 33.8558L44.2367 34.774C45.0267 34.7206 45.8181 34.6124 46.59 34.4521L46.4035 33.5516C47.1451 33.3981 47.8686 33.1948 48.5699 32.9454L48.8782 33.8115C49.622 33.5466 50.355 33.2275 51.0568 32.863L50.6334 32.048C51.3017 31.7017 51.9436 31.3105 52.5544 30.8786L53.0841 31.627C53.7283 31.1715 54.3477 30.6667 54.9249 30.1275L54.2997 29.4588C54.8488 28.9467 55.3627 28.3976 55.8377 27.8153L56.5457 28.3921C57.0451 27.7791 57.5064 27.1263 57.9171 26.4526L57.1388 25.9786C57.5291 25.3398 57.8768 24.6729 58.1788 23.9807L59.0118 24.3429C59.3274 23.6176 59.5954 22.8638 59.8082 22.1023L58.9354 21.8582C59.1368 21.142 59.2908 20.4059 59.394 19.6534L60.2891 19.7752C60.395 18.996 60.4489 18.1992 60.4489 17.4069V17.3747H59.5483V17.3749ZM58.1556 21.6406C57.9609 22.3337 57.7201 23.007 57.4362 23.6576C57.1496 24.3154 56.8187 24.9501 56.4474 25.5573C56.0748 26.1684 55.661 26.752 55.2101 27.3044C54.7583 27.8586 54.2693 28.381 53.7468 28.8677C53.2257 29.3549 52.6711 29.8063 52.0871 30.2182C51.5063 30.6289 50.896 31.001 50.2603 31.3301C49.6306 31.6574 48.9755 31.9432 48.2986 32.1831C47.6318 32.4203 46.944 32.6137 46.2391 32.7594C45.5482 32.9025 44.8406 33.0003 44.1194 33.0487C43.7631 33.0731 43.4036 33.0854 43.0414 33.0854C42.6842 33.0854 42.3302 33.0737 41.9788 33.0501C41.2581 33.0016 40.5505 32.9052 39.8596 32.7626C39.1538 32.6173 38.4651 32.4249 37.7973 32.1876C37.12 31.9481 36.4645 31.6629 35.8338 31.3365C35.1972 31.0069 34.5865 30.6352 34.0047 30.2245C33.4202 29.8125 32.8652 29.3611 32.3431 28.8749C31.8207 28.3887 31.3317 27.8667 30.8794 27.313C30.4289 26.7615 30.0147 26.1784 29.6416 25.5677C29.2704 24.9615 28.9394 24.3276 28.6524 23.6707C28.3676 23.0206 28.1263 22.3478 27.9312 21.6556C27.7392 20.9746 27.5921 20.2747 27.4929 19.5598C27.3965 18.8613 27.3458 18.1478 27.3444 17.4229C27.3439 17.4112 27.3439 17.3994 27.3439 17.3876C27.3439 16.6746 27.3915 15.9724 27.4838 15.2847C27.5794 14.5689 27.7238 13.8681 27.9126 13.1862C28.1049 12.4917 28.344 11.8167 28.6261 11.1647C28.9109 10.5051 29.24 9.86899 29.6099 9.26003C29.9811 8.64657 30.3936 8.06119 30.8436 7.50659C31.2945 6.95019 31.7825 6.4259 32.3046 5.9365C32.8257 5.44754 33.3803 4.99389 33.9643 4.57917C34.5456 4.1663 35.1563 3.79231 35.7924 3.46093C36.4231 3.13135 37.0791 2.8443 37.7569 2.60209C38.4247 2.36305 39.1137 2.16838 39.8205 2.02121C40.5132 1.87678 41.2221 1.77762 41.9452 1.72828C42.3074 1.70295 42.6727 1.69026 43.0413 1.69026C43.3939 1.69026 43.7439 1.70205 44.0907 1.72468C44.8137 1.77265 45.5232 1.86911 46.2159 2.01126C46.9235 2.15659 47.6139 2.34993 48.2831 2.5867C48.9617 2.82711 49.6191 3.11279 50.2507 3.44057C50.8886 3.77015 51.5007 4.14324 52.0833 4.55474C52.6692 4.96761 53.2252 5.4204 53.7476 5.908C54.2705 6.39607 54.7604 6.91894 55.2122 7.47401C55.6636 8.02681 56.0774 8.61129 56.4505 9.22295C56.8212 9.83054 57.1518 10.4648 57.4383 11.1231C57.7222 11.7737 57.9631 12.4478 58.1573 13.1409C58.3484 13.8223 58.4946 14.5227 58.5924 15.2385C58.6884 15.9371 58.7382 16.6501 58.7386 17.375V17.3877C58.7386 18.1193 58.6884 18.8396 58.5915 19.5445C58.4933 20.2597 58.3471 20.9597 58.1556 21.6406Z" fill="#C0C0C0"/>
<path d="M43.051 31.7974C41.8808 31.7974 40.7168 31.6563 39.5912 31.3782L39.8119 30.4852C40.8653 30.7456 41.9551 30.8775 43.051 30.8775C43.4669 30.8775 43.8868 30.8583 44.299 30.8204L44.3832 31.7365C43.9431 31.7769 43.4949 31.7974 43.051 31.7974ZM44.8632 31.6842L44.7484 30.7715C46.2511 30.5825 47.6994 30.1439 49.053 29.4682L49.4639 30.2912C48.0172 31.0135 46.4692 31.4821 44.8632 31.6842ZM39.1243 31.2545C37.5705 30.8142 36.1106 30.1179 34.785 29.1847L35.3146 28.4325C36.5551 29.3058 37.9213 29.9575 39.3751 30.3694L39.1243 31.2545ZM49.8914 30.0688L49.4531 29.26C50.782 28.5398 51.9738 27.6066 52.9956 26.4864L53.6753 27.1062C52.584 28.3027 51.3109 29.2994 49.8914 30.0688ZM34.3946 28.8999C33.1039 27.925 31.9936 26.7495 31.0947 25.4061L31.8593 24.8945C32.7009 26.1524 33.7405 27.253 34.9491 28.1659L34.3946 28.8999ZM53.9946 26.744L53.2946 26.1471C54.2793 24.9922 55.0554 23.6926 55.6015 22.2842L56.4592 22.6166C55.8757 24.1217 55.0465 25.5103 53.9946 26.744ZM30.8333 25.0009C29.9781 23.625 29.3669 22.1276 29.0168 20.5501L29.9148 20.3508C30.2424 21.8267 30.8143 23.2278 31.6146 24.5152L30.8333 25.0009ZM56.6266 22.1621L55.7582 21.8588C56.2549 20.4361 56.5068 18.9433 56.5068 17.4217L56.5068 17.3917H57.4266L57.4267 17.4195C57.4267 19.0467 57.1575 20.6416 56.6266 22.1621ZM28.9201 20.077C28.7576 19.2073 28.6753 18.3139 28.6753 17.4217C28.6753 16.702 28.729 15.9789 28.8349 15.2725L29.7446 15.4088C29.6454 16.0703 29.5951 16.7475 29.5951 17.4217C29.5951 18.2574 29.6722 19.0939 29.8243 19.9081L28.9201 20.077ZM56.4984 16.9406C56.445 15.4225 56.1401 13.9401 55.592 12.5346L56.449 12.2004C57.0348 13.7026 57.3607 15.2865 57.4177 16.9082L56.4984 16.9406ZM29.8192 14.9631L28.9145 14.7962C29.2081 13.206 29.7652 11.6874 30.5706 10.2824L31.3687 10.7399C30.6151 12.0545 30.0938 13.4754 29.8192 14.9631ZM55.4213 12.1177C54.8254 10.73 54.004 9.45891 52.9798 8.33981L53.6584 7.71878C54.7524 8.91411 55.6299 10.272 56.2665 11.7548L55.4213 12.1177ZM31.6004 10.351L30.8181 9.86691C31.6685 8.49286 32.7365 7.27877 33.9926 6.25827L34.5727 6.97221C33.3965 7.9278 32.3965 9.0646 31.6004 10.351ZM52.6691 8.01156C51.6081 6.92732 50.384 6.03656 49.0306 5.36405L49.4399 4.5403C50.8858 5.25874 52.1935 6.2102 53.3267 7.36822L52.6691 8.01156ZM34.928 6.6934L34.3721 5.96042C35.6638 4.98082 37.0978 4.23288 38.6342 3.73733L38.9166 4.6128C37.4789 5.07652 36.137 5.7765 34.928 6.6934ZM48.6216 5.16938C47.2458 4.54285 45.7824 4.15626 44.272 4.0205L44.3543 3.10431C45.9684 3.2494 47.5324 3.66256 49.0029 4.33228L48.6216 5.16938ZM39.3489 4.48139L39.0964 3.59683C40.3766 3.23127 41.7071 3.04593 43.051 3.04593C43.3242 3.04593 43.6007 3.05369 43.8729 3.06904L43.8212 3.9875C43.5662 3.97315 43.307 3.96581 43.051 3.96581C41.7926 3.96586 40.547 4.13931 39.3489 4.48139Z" fill="#C0C0C0"/>
<path d="M37.4784 61.3037L36.2256 54.6817H26.7997L25.5469 61.3037H17.4335L25.4872 19.5435H37.8363L45.4725 61.3037H37.4784ZM31.3933 27.2989L29.0667 41.1991L27.7542 48.2984H35.2114L33.8393 41.1991L31.5127 27.2989H31.3933Z" fill="white"/>
<path d="M42.5654 23.4532L42.4679 23.3738C43.3253 22.3198 43.6744 21.4407 43.5352 20.6863C43.3457 19.6594 42.2658 19.0368 41.313 18.4874C40.7781 18.1791 40.2729 17.8878 39.9876 17.5574C39.7735 17.3094 39.6847 17.0409 39.7238 16.7593C39.8126 16.1204 40.5249 15.6445 40.5553 15.6246L40.6244 15.7295C40.6175 15.7341 39.9289 16.1947 39.8483 16.7769C39.8145 17.0211 39.8934 17.256 40.0827 17.4752C40.3541 17.7894 40.8504 18.0756 41.3758 18.3785C42.3522 18.9414 43.4588 19.5794 43.6588 20.6635C43.8051 21.4563 43.4475 22.3688 42.5654 23.4532Z" fill="#3F3F3F"/>
<path d="M35.0687 16.4383C35.053 16.4058 34.6827 15.6302 34.5991 14.664C34.4849 13.3447 34.9616 12.3151 35.9778 11.6865C36.72 11.2274 37.537 11.0944 38.3405 11.302C39.2671 11.5414 40.0058 12.2003 40.2133 12.5702L39.7747 12.8162C39.6363 12.5696 39.0178 11.9964 38.2147 11.7889C37.5378 11.614 36.8741 11.7234 36.2424 12.1142C35.3864 12.6438 35.0021 13.487 35.1002 14.6206C35.1759 15.4957 35.5181 16.2124 35.5216 16.2195L35.0687 16.4383Z" fill="#3F3F3F"/>
<path d="M40.5028 12.1756L39.2906 12.8755L39.4827 13.2083L40.6949 12.5084L40.5028 12.1756Z" fill="#3F3F3F"/>
<path d="M49.7368 11.3001H48.9092V15.1346H49.7368V11.3001Z" fill="#6B6B6B"/>
<path d="M49.8245 13.9647L48.8545 13.9641C48.6822 14.1048 48.5723 14.3189 48.5725 14.5588L48.5739 15.2604L50.1069 15.2586L50.1056 14.557C50.1053 14.3181 49.9958 14.105 49.8245 13.9647Z" fill="#C0C0C0"/>
<path d="M50.2514 15.2578H48.4396V15.4776H50.2514V15.2578Z" fill="#6B6B6B"/>
<path d="M48.0641 19.2564L47.7537 19.3018L46.8729 17.0237L47.7195 16.8999L48.0641 19.2564Z" fill="#6B6B6B"/>
<path d="M51.2911 19.2396L51.6046 19.2276L52.0556 16.8271L51.2005 16.8597L51.2911 19.2396Z" fill="#6B6B6B"/>
<path d="M50.3147 16.3023L48.4908 16.3011C48.2686 16.301 48.0869 16.119 48.0871 15.8968C48.0872 15.6746 48.2691 15.4929 48.4914 15.493L50.3153 15.4942C50.5375 15.4944 50.7192 15.6763 50.719 15.8985C50.7188 16.1207 50.5369 16.3024 50.3147 16.3023Z" fill="#C0C0C0"/>
<path d="M48.7002 15.6244C48.5738 15.4856 48.3599 15.4727 48.2178 15.5953L47.025 16.6242C46.7492 16.8574 46.7536 17.284 47.0341 17.5116C47.301 17.7279 47.6967 17.6642 47.882 17.3749L48.7356 16.0447C48.8203 15.9128 48.8058 15.7403 48.7002 15.6244Z" fill="#C0C0C0"/>
<path d="M47.2452 16.9108C47.1499 17.0309 47.2002 17.2071 47.3445 17.2587C47.432 17.29 47.5325 17.2612 47.5903 17.1885C47.6857 17.0684 47.6353 16.8922 47.491 16.8406C47.4034 16.8093 47.303 16.838 47.2452 16.9108Z" fill="#6B6B6B"/>
<path d="M48.2896 15.7798C48.2163 15.8721 48.255 16.0075 48.3659 16.0472C48.4331 16.0712 48.5103 16.0491 48.5547 15.9932C48.628 15.9009 48.5894 15.7656 48.4784 15.7259C48.4112 15.7019 48.3339 15.7239 48.2896 15.7798Z" fill="#6B6B6B"/>
<path d="M50.0518 15.6414C50.1588 15.4871 50.3691 15.4461 50.5261 15.5489L51.8442 16.4114C52.1484 16.6062 52.2004 17.0297 51.9523 17.2922C51.7163 17.5419 51.3156 17.5309 51.0937 17.2686L50.0721 16.0627C49.9708 15.9431 49.9624 15.7703 50.0518 15.6414Z" fill="#C0C0C0"/>
<path d="M50.1907 15.8326C50.1684 15.9483 50.2653 16.0505 50.382 16.0343C50.4527 16.0246 50.511 15.9692 50.5245 15.8992C50.5467 15.7835 50.4498 15.6813 50.3332 15.6975C50.2625 15.7072 50.2042 15.7625 50.1907 15.8326Z" fill="#6B6B6B"/>
<path d="M51.2912 16.8425C51.2622 16.993 51.3883 17.126 51.5402 17.1049C51.6322 17.0922 51.708 17.0203 51.7256 16.929C51.7546 16.7784 51.6285 16.6455 51.4766 16.6665C51.3846 16.6793 51.3087 16.7512 51.2912 16.8425Z" fill="#6B6B6B"/>
<path d="M49.4808 11.0981H46.4314V12.0792H49.4808V11.0981Z" fill="#3F3F3F"/>
<path d="M46.8026 12.6626H44.8271C44.234 12.6626 43.7532 12.1817 43.7532 11.5886C43.7532 10.9955 44.234 10.5147 44.8271 10.5147H46.8026V12.6626Z" fill="#C0C0C0"/>
<path d="M49.3614 12.6626H47.9693V10.5147H49.3614C49.9545 10.5147 50.4354 10.9955 50.4354 11.5886C50.4354 12.1818 49.9545 12.6626 49.3614 12.6626Z" fill="#C0C0C0"/>
<path d="M49.6147 12.1013C49.3269 12.222 48.9946 12.086 48.874 11.7981C48.7533 11.5103 48.8893 11.178 49.1771 11.0574C49.4649 10.9367 49.7972 11.0727 49.9179 11.3605C50.0385 11.6484 49.9025 11.9806 49.6147 12.1013ZM49.2692 11.2771C49.1026 11.347 49.0238 11.5394 49.0937 11.706C49.1635 11.8727 49.3559 11.9514 49.5226 11.8816C49.6892 11.8117 49.768 11.6193 49.6981 11.4527C49.6283 11.286 49.4359 11.2073 49.2692 11.2771Z" fill="white"/>
<path d="M40.8807 16.0985L39.1781 13.4631L38.628 13.8185L40.3306 16.4539L40.8807 16.0985Z" fill="#3F3F3F"/>
<path d="M35.4753 17.7132C35.2199 17.316 35.3347 16.7869 35.7319 16.5315L40.1319 13.6986L41.0571 15.1369L36.6571 17.9698C36.2599 18.2252 35.7308 18.1104 35.4753 17.7132Z" fill="#3F3F3F"/>
<path d="M40.6774 16.5002L45.4375 12.9751C46.0493 12.5221 46.203 11.6713 45.7884 11.0329C45.3738 10.3945 44.534 10.1889 43.8714 10.5635L38.7248 13.4779L40.6774 16.5002Z" fill="#C0C0C0"/>
<path d="M45.0784 12.5959C44.6509 12.8735 44.0774 12.7516 43.7999 12.3242C43.5224 11.8968 43.6443 11.3233 44.0717 11.0457C44.4991 10.7682 45.0726 10.8901 45.3502 11.3175C45.6276 11.7449 45.5058 12.3184 45.0784 12.5959ZM44.2835 11.3721C44.0361 11.5328 43.9655 11.8648 44.1262 12.1123C44.2869 12.3598 44.619 12.4304 44.8664 12.2697C45.1139 12.109 45.1845 11.7769 45.0238 11.5294C44.8631 11.2819 44.531 11.2113 44.2835 11.3721Z" fill="white"/>
<path d="M41.3358 25.9898C40.0389 26.8071 38.3249 26.4183 37.5075 25.1214L33.7976 19.2346C32.9803 17.9377 33.3691 16.2238 34.666 15.4064C35.9629 14.5891 37.6768 14.9779 38.4942 16.2748L42.2041 22.1616C43.0214 23.4585 42.6327 25.1725 41.3358 25.9898Z" fill="#C0C0C0"/>
<path d="M35.2798 16.3804C34.597 16.8107 34.3924 17.7131 34.8227 18.3959C35.253 19.0787 36.1553 19.2835 36.8382 18.8531C37.5211 18.4228 37.7257 17.5204 37.2954 16.8376C36.865 16.1548 35.9627 15.95 35.2798 16.3804ZM36.5249 18.3561C36.1166 18.6134 35.577 18.491 35.3196 18.0827C35.0623 17.6743 35.1847 17.1347 35.593 16.8774C36.0013 16.62 36.5409 16.7424 36.7983 17.1508C37.0557 17.5592 36.9333 18.0988 36.5249 18.3561Z" fill="white"/>
<path d="M39.0714 22.482C38.3887 22.9122 38.1841 23.8147 38.6144 24.4974C39.0446 25.1802 39.947 25.385 40.6298 24.9547C41.3127 24.5243 41.5173 23.622 41.087 22.9391C40.6567 22.2564 39.7544 22.0516 39.0714 22.482ZM40.3166 24.4577C39.9083 24.715 39.3687 24.5926 39.1114 24.1842C38.854 23.7759 38.9764 23.2363 39.3847 22.979C39.7931 22.7216 40.3327 22.844 40.59 23.2524C40.8474 23.6607 40.725 24.2003 40.3166 24.4577Z" fill="white"/>
<path d="M54.8494 39.6004C53.6866 39.6004 52.6536 39.4875 51.7505 39.2617C50.8586 39.0359 50.1248 38.7311 49.549 38.3472C48.9846 37.9634 48.5161 37.4892 48.1435 36.9248C47.7823 36.349 47.5283 35.745 47.3815 35.1128C47.2347 34.4806 47.1614 33.7807 47.1614 33.013V19.3981H53.1899V32.251C53.1899 33.6847 53.3366 34.6726 53.6301 35.2144C53.935 35.745 54.3752 36.0103 54.951 36.0103C55.2671 36.0103 55.5437 35.9595 55.7808 35.8579C56.0178 35.745 56.238 35.5588 56.4412 35.2991C56.6444 35.0282 56.7968 34.6443 56.8984 34.1476C57.0113 33.6396 57.0677 33.0243 57.0677 32.3018V19.3981H62.4189V33.1146C62.4189 33.871 62.3512 34.554 62.2157 35.1636C62.0915 35.7733 61.8544 36.366 61.5045 36.9417C61.1658 37.5062 60.7142 37.9803 60.1497 38.3642C59.5966 38.7367 58.8684 39.0359 57.9653 39.2617C57.0734 39.4875 56.0348 39.6004 54.8494 39.6004ZM70.889 39.2447V23.8856H66.9264V19.3981H80.5752V23.8856H76.6126V39.2447H70.889ZM90.8657 31.5736C90.8657 33.4477 91.0068 34.7516 91.289 35.4854C91.5825 36.2192 92.0906 36.5861 92.8131 36.5861C93.3437 36.5861 93.7444 36.4563 94.0154 36.1966C94.2863 35.9257 94.4895 35.3781 94.625 34.554C94.7718 33.7186 94.8452 32.4711 94.8452 30.8116V26.7305C94.8452 25.1161 94.6871 23.9138 94.371 23.1236C94.0549 22.3333 93.5356 21.9382 92.8131 21.9382C92.0906 21.9382 91.5825 22.3277 91.289 23.1066C91.0068 23.8743 90.8657 25.2798 90.8657 27.3232V31.5736ZM92.4575 39.6004C91.5204 39.6004 90.6737 39.5157 89.9174 39.3463C89.1723 39.177 88.5288 38.9399 87.9869 38.6351C87.445 38.3303 86.9708 37.9408 86.5644 37.4667C86.1693 36.9925 85.8476 36.4845 85.5992 35.9426C85.3621 35.4007 85.1702 34.7685 85.0234 34.046C84.8767 33.3122 84.7751 32.584 84.7186 31.8615C84.6622 31.1277 84.6339 30.3036 84.6339 29.3891C84.6339 28.0344 84.7017 26.8547 84.8372 25.8499C84.9839 24.8452 85.2492 23.9025 85.6331 23.0219C86.0169 22.1301 86.5249 21.4076 87.1571 20.8544C87.8006 20.3012 88.6247 19.8666 89.6295 19.5505C90.6455 19.2344 91.8422 19.0763 93.2195 19.0763C94.1678 19.0763 95.0201 19.1666 95.7765 19.3473C96.5329 19.5166 97.1821 19.7537 97.7239 20.0585C98.2658 20.3633 98.7343 20.7584 99.1295 21.2439C99.5359 21.7293 99.8576 22.2486 100.095 22.8018C100.343 23.3437 100.541 23.9815 100.687 24.7153C100.834 25.4492 100.936 26.1773 100.992 26.8998C101.049 27.6224 101.077 28.4408 101.077 29.3553C101.077 30.71 101.003 31.8897 100.857 32.8945C100.71 33.8992 100.445 34.8419 100.061 35.7225C99.677 36.5917 99.1633 37.303 98.5198 37.8561C97.8763 38.398 97.0466 38.827 96.0305 39.1431C95.0258 39.4479 93.8348 39.6004 92.4575 39.6004Z" fill="white"/>
<path d="M24.6917 66.805C23.9364 65.6246 23.3352 64.3587 22.9037 63.0404L21.0767 63.6234L20.9689 63.6508L20.9349 63.5448C20.1848 61.2076 19.9048 58.7915 20.1027 56.3634L20.1123 56.2457L22.1309 56.4056C22.3215 54.2525 22.9041 52.2085 23.8635 50.3268L22.0594 49.3979L22.1129 49.2928C23.2149 47.1296 24.7248 45.2212 26.6006 43.6207L26.6907 43.5439L28.0098 45.0899C29.653 43.7073 31.5093 42.672 33.5309 42.0106L32.9141 40.078L33.0266 40.0418C35.3497 39.2961 37.7657 39.0161 40.2077 39.2096L40.3257 39.2189L40.1658 41.2379C40.8448 41.2981 41.5249 41.3998 42.1891 41.5405L42.1401 41.7722C41.4473 41.6254 40.737 41.5217 40.0288 41.4639L39.9112 41.4543L40.071 39.4367C37.7395 39.2665 35.4332 39.5339 33.2117 40.2315L33.8284 42.1637L33.7156 42.1997C31.6433 42.8615 29.7449 43.9202 28.0732 45.3465L27.9832 45.4234L26.6646 43.878C24.8844 45.4161 23.4428 47.2379 22.3778 49.2955L24.1828 50.2248L24.128 50.3302C23.133 52.2471 22.5371 54.3372 22.3569 56.5425L22.3473 56.6602L20.3295 56.5003C20.1554 58.8191 20.4229 61.1257 21.1249 63.3606L23.0568 62.7429L23.0929 62.8557C23.5204 64.1949 24.1255 65.4807 24.8912 66.6773L24.6917 66.805Z" fill="black"/>
<path d="M40.2807 41.1872C41.6797 41.2681 43.0576 41.524 44.3784 41.9481L44.9782 40.1266L45.0193 40.0232L45.125 40.0578C47.4577 40.8217 49.5786 42.0126 51.4287 43.5974L51.5184 43.6743L50.2046 45.215C51.8363 46.6327 53.1497 48.3037 54.1105 50.1847L55.9213 49.2687L55.9749 49.3737C57.0801 51.5353 57.7397 53.8776 57.9351 56.3357L57.9445 56.4538L55.9187 56.6149C56.0741 58.7567 55.8234 60.8674 55.1729 62.8925L57.0998 63.5269L57.063 63.6393C56.3039 65.958 55.1131 68.0788 53.5237 69.9428L53.4469 70.0328L51.9057 68.7187C51.4586 69.2333 50.9772 69.7243 50.4736 70.1796L50.3148 70.004C50.8401 69.5291 51.3408 69.0147 51.8031 68.4752L51.8799 68.3856L53.42 69.6988C54.9257 67.9106 56.0624 65.8861 56.8008 63.6778L54.8743 63.0435L54.9113 62.9311C55.5913 60.8647 55.8478 58.7062 55.6736 56.5157L55.6642 56.3976L57.6893 56.2366C57.4882 53.8925 56.8588 51.6563 55.8174 49.5867L54.0058 50.503L53.9526 50.3969C52.9841 48.4665 51.6412 46.7576 49.9611 45.3177L49.8714 45.2409L51.1848 43.7007C49.4092 42.1993 47.3844 41.0625 45.1627 40.3197L44.5294 42.2466L44.417 42.2097C43.0816 41.7701 41.6854 41.5057 40.2671 41.4237L40.2807 41.1872Z" fill="black"/>
<path d="M93.5378 14.2917C93.5492 14.2997 93.8201 14.4915 94.0302 14.8014C94.317 15.2247 94.3501 15.6615 94.126 16.0647C93.9622 16.3593 93.7118 16.5579 93.4019 16.6392C93.0444 16.7329 92.6714 16.6499 92.5318 16.5642L92.6333 16.3987C92.7264 16.4558 93.0429 16.5326 93.3526 16.4514C93.6138 16.3829 93.8169 16.221 93.9562 15.9704C94.1451 15.6307 94.1159 15.2741 93.8694 14.9104C93.6792 14.6297 93.4289 14.4525 93.4264 14.4508L93.5378 14.2917Z" fill="#8F8F8F"/>
<path d="M91.7108 14.5751L91.3405 14.7709L92.2144 16.4238L92.5847 16.228L91.7108 14.5751Z" fill="#8F8F8F"/>
<path d="M92.6873 17.0646L92.6738 18.3202L93.0927 18.3247L93.1062 17.0691L92.6873 17.0646Z" fill="#8F8F8F"/>
<path d="M91.4878 15.239L94.4093 15.2391C94.8571 15.2391 95.2202 14.8761 95.2202 14.4282C95.2202 13.9803 94.8572 13.6172 94.4093 13.6172L91.4878 13.6171C91.04 13.6171 90.6768 13.9802 90.6768 14.4281C90.6768 14.8759 91.0399 15.239 91.4878 15.239Z" fill="#4A4A4A"/>
<path d="M94.0283 14.2512C93.9399 14.4621 94.0396 14.7056 94.2505 14.794C94.4614 14.8824 94.7049 14.7828 94.7933 14.5719C94.8817 14.361 94.782 14.1175 94.5711 14.0291C94.3602 13.9407 94.1167 14.0403 94.0283 14.2512Z" fill="#8F8F8F"/>
<path d="M91.1071 14.2675C91.0165 14.4774 91.1135 14.7219 91.3235 14.8126C91.5335 14.9032 91.778 14.8062 91.8686 14.5962C91.9593 14.3863 91.8622 14.1417 91.6523 14.0511C91.4423 13.9605 91.1978 14.0575 91.1071 14.2675Z" fill="#8F8F8F"/>
<path d="M91.7635 16.0903L92.4951 17.4872C92.6072 17.7013 92.8717 17.784 93.0859 17.6719C93.3 17.5598 93.3827 17.2952 93.2706 17.0811L92.539 15.6842C92.4269 15.4701 92.1624 15.3874 91.9482 15.4995C91.7341 15.6117 91.6513 15.8762 91.7635 16.0903Z" fill="#4A4A4A"/>
<path d="M92.8758 17.1013C92.7769 17.1098 92.7033 17.1972 92.7118 17.2961C92.7203 17.3949 92.8077 17.4685 92.9066 17.46C93.0054 17.4516 93.079 17.3642 93.0705 17.2653C93.062 17.1664 92.9746 17.0929 92.8758 17.1013Z" fill="#8F8F8F"/>
<path d="M92.1117 15.6852C92.0128 15.6937 91.9393 15.781 91.9478 15.8799C91.9563 15.9788 92.0436 16.0523 92.1425 16.0439C92.2414 16.0354 92.315 15.9481 92.3065 15.8492C92.298 15.7503 92.2106 15.6767 92.1117 15.6852Z" fill="#8F8F8F"/>
<path d="M90.8891 19.159V20.8743C90.9022 20.9843 90.9708 21.0321 91.0984 21.0138V19.1591L90.8891 19.159Z" fill="#8F8F8F"/>
<path d="M90.395 19.159L90.9925 19.7564V19.159H90.395Z" fill="#8F8F8F"/>
<path d="M94.6998 19.159V21.0138C94.8274 21.0321 94.8959 20.9843 94.9091 20.8742V19.159H94.6998V19.159Z" fill="#8F8F8F"/>
<path d="M94.7564 19.159V19.7564L95.3538 19.159H94.7564Z" fill="#8F8F8F"/>
<path d="M93.1702 18.13H92.6587C92.5679 18.2043 92.51 18.3173 92.5102 18.4437L92.5112 18.9797L93.3196 18.9783L93.3186 18.4423C93.3184 18.3163 93.2606 18.204 93.1702 18.13Z" fill="#4A4A4A"/>
<path d="M95.3208 19.1868H90.4383C90.3626 19.1868 90.3013 19.1255 90.3013 19.0498C90.3013 18.9742 90.3626 18.9129 90.4383 18.9129H95.3208C95.3964 18.9129 95.4577 18.9742 95.4577 19.0498C95.4577 19.1255 95.3964 19.1868 95.3208 19.1868Z" fill="#4A4A4A"/>
<path d="M93.1617 18.5008C93.1617 18.6371 93.0512 18.7476 92.9149 18.7476C92.7786 18.7476 92.6682 18.6371 92.6682 18.5008C92.6682 18.3646 92.7786 18.2541 92.9149 18.2541C93.0511 18.254 93.1617 18.3645 93.1617 18.5008Z" fill="#8F8F8F"/>
<path d="M92.9122 18.6187C92.9772 18.6187 93.03 18.5659 93.03 18.5008C93.03 18.4358 92.9772 18.383 92.9122 18.383C92.8471 18.383 92.7944 18.4358 92.7944 18.5008C92.7944 18.5659 92.8471 18.6187 92.9122 18.6187Z" fill="#4A4A4A"/>
<path d="M30.1134 66.5459C31.101 67.7594 32.2828 68.7217 33.5769 69.4242L34.186 68.3059C35.4051 68.9699 36.7365 69.3743 38.0915 69.5168L37.962 70.7805C39.4566 70.9338 40.9804 70.802 42.4459 70.3687L42.3675 70.0964L42.0871 69.1479C43.3684 68.7713 44.6008 68.1356 45.7018 67.2395L46.5066 68.2282C47.7202 67.2407 48.6823 66.0589 49.3821 64.7611L48.2636 64.152C48.9307 62.9368 49.335 61.6051 49.4774 60.2502L50.7411 60.3799C50.8944 58.8852 50.7595 57.3577 50.3262 55.8921L50.3224 55.8951L49.9688 55.9962L49.1052 56.2509C48.7286 54.9696 48.096 53.7411 47.1999 52.6399L48.1888 51.835C47.2013 50.6214 46.0164 49.6555 44.7186 48.9561L44.1096 50.0744C42.8941 49.4073 41.5657 49.0066 40.2105 48.8643L40.3403 47.6006C38.8456 47.4471 37.3181 47.5822 35.8525 48.0154L36.2113 49.2364C34.93 49.613 33.7015 50.2455 32.6002 51.1418L31.7954 50.153C30.5818 51.1406 29.6159 52.3253 28.9163 53.6232L30.0346 54.2323C29.3675 55.4476 28.9668 56.7761 28.8245 58.1311L27.561 58.0014C27.4039 59.4991 27.5426 61.0236 27.9756 62.4892L27.9861 62.4867L28.7896 62.25L29.1966 62.1304C29.5732 63.4117 30.2087 64.644 31.1019 65.7414L30.1134 66.5459ZM35.8848 61.8495C34.4162 60.045 34.6885 57.3921 36.4929 55.9235C38.3001 54.4525 40.9532 54.7248 42.4218 56.5291C43.8928 58.3362 43.6205 60.9894 41.8133 62.4603C40.0087 63.9289 37.3557 63.6566 35.8848 61.8495Z" stroke="black" stroke-width="0.956766" stroke-miterlimit="10"/>
<path d="M30.1134 66.5459C31.101 67.7594 32.2828 68.7217 33.5769 69.4242L34.186 68.3059C35.4051 68.9699 36.7365 69.3743 38.0915 69.5168L37.962 70.7805C39.4566 70.9338 40.9804 70.802 42.4459 70.3687L42.3675 70.0964L42.0871 69.1479C43.3684 68.7713 44.6008 68.1356 45.7018 67.2395L46.5066 68.2282C47.7202 67.2407 48.6823 66.0589 49.3821 64.7611L48.2636 64.152C48.9307 62.9368 49.335 61.6051 49.4774 60.2502L50.7411 60.3799C50.8944 58.8852 50.7595 57.3577 50.3262 55.8921L50.3224 55.8951L49.9688 55.9962L49.1052 56.2509C48.7286 54.9696 48.096 53.7411 47.1999 52.6399L48.1888 51.835C47.2013 50.6214 46.0164 49.6555 44.7186 48.9561L44.1096 50.0744C42.8941 49.4073 41.5657 49.0066 40.2105 48.8643L40.3403 47.6006C38.8456 47.4471 37.3181 47.5822 35.8525 48.0154L36.2113 49.2364C34.93 49.613 33.7015 50.2455 32.6002 51.1418L31.7954 50.153C30.5818 51.1406 29.6159 52.3253 28.9163 53.6232L30.0346 54.2323C29.3675 55.4476 28.9668 56.7761 28.8245 58.1311L27.561 58.0014C27.4039 59.4991 27.5426 61.0236 27.9756 62.4892L27.9861 62.4867L28.7896 62.25L29.1966 62.1304C29.5732 63.4117 30.2087 64.644 31.1019 65.7414L30.1134 66.5459ZM35.8848 61.8495C34.4162 60.045 34.6885 57.3921 36.4929 55.9235C38.3001 54.4525 40.9532 54.7248 42.4218 56.5291C43.8928 58.3362 43.6205 60.9894 41.8133 62.4603C40.0087 63.9289 37.3557 63.6566 35.8848 61.8495Z" stroke="black" stroke-width="0.956766" stroke-miterlimit="10"/>
<path d="M82.5612 51.1915C83.1143 51.8711 83.776 52.41 84.5007 52.8033L84.8418 52.1771C85.5245 52.549 86.27 52.7754 87.0288 52.8552L86.9562 53.5628C87.7932 53.6487 88.6465 53.5748 89.4672 53.3323L89.4232 53.1798L89.2663 52.6486C89.9837 52.4377 90.6738 52.0818 91.2904 51.58L91.7411 52.1336C92.4206 51.5806 92.9594 50.9188 93.3513 50.1921L92.7249 49.8511C93.0985 49.1705 93.3249 48.4248 93.4046 47.6661L94.1123 47.7387C94.1981 46.9018 94.1225 46.0464 93.88 45.2257L93.8778 45.2274L93.6798 45.284L93.1962 45.4266C92.9853 44.7091 92.6311 44.0212 92.1293 43.4045L92.6831 42.9538C92.13 42.2742 91.4665 41.7333 90.7398 41.3417L90.3988 41.9679C89.7181 41.5943 88.9743 41.37 88.2154 41.2903L88.288 40.5826C87.4511 40.4967 86.5957 40.5723 85.775 40.8149L85.9759 41.4987C85.2584 41.7095 84.5705 42.0637 83.9538 42.5656L83.5031 42.0119C82.8235 42.5649 82.2826 43.2283 81.8909 43.9552L82.5171 44.2962C82.1435 44.9768 81.9192 45.7207 81.8395 46.4795L81.1319 46.4068C81.0439 47.2455 81.1216 48.0992 81.3641 48.9199L81.37 48.9185L81.8199 48.786L82.0479 48.719C82.2587 49.4365 82.6146 50.1265 83.1148 50.7411L82.5612 51.1915ZM85.7931 48.5617C84.9707 47.5512 85.1232 46.0656 86.1336 45.2432C87.1456 44.4196 88.6313 44.572 89.4537 45.5824C90.2774 46.5943 90.1249 48.08 89.1129 48.9037C88.1024 49.7261 86.6168 49.5736 85.7931 48.5617Z" stroke="black" stroke-width="0.535767" stroke-miterlimit="10"/>
</svg>
